<svg id="Layer_1" data-name="Layer 1" xmlns="http://www.w3.org/2000/svg" viewBox="0 0 749.83 612.62"><defs><style>.cls-1,.cls-2,.cls-7{fill:#fec5bb;}.cls-2{font-size:35px;font-family:ForteMT, Forte;}.cls-3{letter-spacing:-0.02em;}.cls-4{letter-spacing:-0.02em;}.cls-5{letter-spacing:0em;}.cls-6{letter-spacing:-0.02em;}.cls-7{font-size:126.57px;font-family:ArbuckleRemixNF, Arbuckle Remix NF;}</style></defs><title>headphoneLogo</title><path class="cls-1" d="M328.33,655.27l50.7-16.7c-4.15-3.31-7.64-5.91-10.89-8.72-28.7-24.8-44.6-54.81-44.84-90.16-.16-22.8,2.55-45.61,3.21-68.43.22-7.76.37-16.54-3.37-23.16-9.57-16.92-7.52-34.31-5.29-51.59,4-31.24,16-60.41,34.77-87.22,30.35-43.45,76.18-65.71,132.94-70.55,48.67-4.15,93.27,6.13,130,35.81,31,25.07,47.61,57.51,58.6,92.49,1.84,5.87,3.18,11.86,2.89,18.41-2.17-4.55-4.31-9.1-6.51-13.63-12.65-26.07-28.64-50.25-51.41-70.72-38.15-34.3-83.55-41.5-133.51-25.34-41.85,13.54-70.71,39.05-83.22,77.6-10.29,31.76-11.24,64-8.86,97.09,7.08,0,13.65-.38,20.14.06,35.14,2.37,62,17.93,82.13,42.15,30.27,36.46,40.45,76.51,19.84,119.25-14.51,30.1-41.62,45.39-79.77,45-35.81-.39-71.62-.08-107.42-.08Z" transform="translate(-165.08 -237.86)"/><path class="cls-1" d="M595.3,656.22c27.79-11,47.52-27.1,60.45-49.08,18-30.53,23.11-62.23,8-94.87C655.16,493.82,640,480.51,618.79,473c-5.87-2.1-8.69-5-8.34-10.41.65-10.3-3.23-21.15,5.15-30.52,1-1.17,1-3.39.84-5.05-4.5-36.36-12-71.84-36.94-102.63-17.14-21.2-37.36-38.86-66.65-47.23a108.92,108.92,0,0,1,54.73,4.52c28.76,9.88,48.46,28.67,64.2,51.07,24.13,34.33,36.47,72.62,48.54,111,4.12,13.14,4.69,25.91.65,38.91-3.46,11.11-2.31,21.71,2,32.63,13.08,32.9,11.36,65.14-8.69,95.72-5.4,8.24-12.81,15.48-19.87,23.86l49.78,21.32Z" transform="translate(-165.08 -237.86)"/><path class="cls-1" d="M634.55,556.25c-1,17.5-10.95,35.22-33.37,46.19-23.72,11.6-49.65,2.5-58.31-19.86-9.48-24.51,5.38-55.9,31.94-67.46C605,502,634.49,520.1,634.55,556.25Z" transform="translate(-165.08 -237.86)"/><text class="cls-2" transform="translate(192.56 599.8) scale(1.14 1)">A<tspan class="cls-3" x="25.52" y="0">d</tspan><tspan class="cls-4" x="44.88" y="0">o</tspan><tspan class="cls-5" x="63.32" y="0">rn your Mo</tspan><tspan class="cls-6" x="234.37" y="0">v</tspan><tspan x="248.76" y="0">e</tspan></text><text class="cls-7" transform="translate(0 543.22) scale(1.14 1)">Headphone</text></svg>